{"title":"Goon 2011 VODRip XviD - QP","uid":7057313,"size":1618626493,"categoryP":"video","categoryS":"movies","magnet":"?xt=urn:btih:12820c157387834bc407f89cbf9ccdedff54673c&amp;dn=Goon+2011+VODRip+XviD+-+QP&amp;tr=udp%3A%2F%2Ftracker.openbittorrent.com%3A80&amp;tr=udp%3A%2F%2Fopen.demonii.com%3A1337&amp;tr=udp%3A%2F%2Ftracker.coppersurfer.tk%3A6969&amp;tr=udp%3A%2F%2Fexodus.desync.com%3A6969","seeders":2,"leechers":0,"uploader":"SaM","files":2,"time":1330180923,"description":" &lt;a href=&quot;http://www.imdb.com/title/tt1456635/&quot; rel=&quot;nofollow&quot; target=&quot;_NEW&quot;&gt;http://www.imdb.com/title/tt1456635/&lt;/a&gt;\nLabeled an outcast by his brainy family, a bouncer overcomes long odds to lead a team of under performing misfits to semi-pro hockey glory, beating the crap out of everything that stands in his way.\n\n\nFormat                                   : AVI\nFormat/Info                              : Audio Video Interleave\nFormat profile                           : OpenDML\nFile size                                : 1.51 GiB\nDuration                                 : 1h 31mn\nOverall bit rate mode                    : Variable\nOverall bit rate                         : 2 360 Kbps\nWriting application                      : MEncoder SVN-r33823-4.1.2\nWriting library                          : MPlayer\n\nVideo\nID                                       : 0\nFormat                                   : xvid\nCodec ID                                 : xvid\nDuration                                 : 1h 31mn\nBit rate                                 : 2 222 Kbps\nWidth                                    : 624 pixels\nHeight                                   : 336 pixels\nDisplay aspect ratio                     : 1.857\nFrame rate                               : 23.976 fps\nBits/(Pixel*Frame)                       : 0.442\nStream size                              : 1.42 GiB (94%)\n\nAudio\nID                                       : 1\nFormat                                   : MPEG Audio\nFormat version                           : Version 1\nFormat profile                           : Layer 3\nMode                                     : Joint stereo\nMode extension                           : MS Stereo\nCodec ID                                 : 55\nCodec ID/Hint                            : MP3\nDuration                                 : 1h 31mn\nBit rate mode                            : Variable\nBit rate                                 : 123 Kbps\nChannel(s)                               : 2 channels\nSampling rate                            : 48.0 KHz\nCompression mode                         : Lossy\nStream size                              : 80.7 MiB (5%)\nAlignment                                : Aligned on interleaves\nInterleave, duration                     : 24 ms (0.58 video frame)\nInterleave, preload duration             : 482 ms\n\n\n &lt;a href=&quot;\nhttp://img401.imageshack.us/img401/9492/zihdj.jpg&quot; rel=&quot;nofollow&quot; target=&quot;_NEW&quot;&gt;\nhttp://img401.imageshack.us/img401/9492/zihdj.jpg&lt;/a&gt;\n &lt;a href=&quot;\nhttp://img848.imageshack.us/img848/410/z79us.jpg&quot; rel=&quot;nofollow&quot; target=&quot;_NEW&quot;&gt;\nhttp://img848.imageshack.us/img848/410/z79us.jpg&lt;/a&gt;\n\nDVDR HOKNOWS THANKS .","torrent":{"xt":"urn:btih:12820c157387834bc407f89cbf9ccdedff54673c","amp;dn":"Goon+2011+VODRip+XviD+-+QP","amp;tr":["udp%3A%2F%2Ftracker.openbittorrent.com%3A80","udp%3A%2F%2Fopen.demonii.com%3A1337","udp%3A%2F%2Ftracker.coppersurfer.tk%3A6969","udp%3A%2F%2Fexodus.desync.com%3A6969"],"infoHash":"12820c157387834bc407f89cbf9ccdedff54673c","infoHashBuffer":{"type":"Buffer","data":[18,130,12,21,115,135,131,75,196,7,248,156,191,156,205,237,255,84,103,60]},"announce":[],"urlList":[]}}